<?xml version="1.0" encoding="UTF-8"?>
<svg width="32px" height="32px" viewBox="0 0 32 32" version="1.1" xmlns="http://www.w3.org/2000/svg" xmlns:xlink="http://www.w3.org/1999/xlink">
    <!-- Generator: Sketch 51.2 (57519) - http://www.bohemiancoding.com/sketch -->
    <title>Artboard 3</title>
    <desc>Created with Sketch.</desc>
    <defs></defs>
    <g id="Artboard-3" stroke="none" stroke-width="1" fill="none" fill-rule="evenodd">
        <g id="Character" transform="translate(2.000000, 2.000000)" fill-rule="nonzero">
            <rect id="Rectangle-4" fill="#7FA1E8" x="0" y="0" width="28" height="28" rx="14"></rect>
            <path d="M15.8167939,20.7094534 L15.8167939,23 L13.1832061,23 L13.1832061,20.7094534 C9.67491705,20.1270517 7,17.0783446 7,13.4048771 C7,9.31527642 10.3152764,6 14.4048771,6 L14.5951229,6 C18.6847236,6 22,9.31527642 22,13.4048771 C22,17.0783446 19.325083,20.1270517 15.8167939,20.7094534 Z" id="Combined-Shape" fill="#E9BF7B"></path>
            <path d="M11,23 L16,23 C18.7614237,23 21,25.2385763 21,28 L6,28 C6,25.2385763 8.23857625,23 11,23 Z" id="Combined-Shape" fill="#2B2B2D"></path>
            <path d="M11.6731394,6 L14.4901518,6 C18.6268485,6 21.9803037,9.35345519 21.9803038,13.4901518 L21.9803038,13.6142293 C22.0782898,14.8075529 21.8106754,15.968317 21.1774606,17.0965216 C20.5442458,18.2247262 19.6171701,19.1925523 18.3962335,20 C19.3152233,18.8804696 19.9253173,17.7714719 20.2265155,16.673007 C20.5277137,15.574542 20.5277137,14.458537 20.2265155,13.3249919 C19.9064832,13.0899608 19.5710506,12.7429925 19.2202175,12.284087 C18.8693844,11.8251814 18.5637898,11.3336568 18.3034334,10.8095132 C17.3565285,12.321503 15.8609375,13.512409 13.8166604,14.3822312 C12.1169121,15.1054594 10.2595783,15.5123615 8.24465903,15.6029375 C7.97238439,15.6151769 7.97238439,16.2963822 8.24465903,17.6465533 L8.24465903,17.6465533 C7.4277757,16.1368579 7,14.4473863 7,12.7308554 L7,10.6731394 C7,8.09223576 9.09223576,6 11.6731394,6 Z" id="Rectangle-9" fill="#262B31"></path>
            <path d="M18,6.87507731 L18,10.734807 C17.0631203,12.0718972 15.6338298,13.1325933 13.7121284,13.9168953 C12.0384453,14.5999738 10.2095934,14.9842869 8.22557245,15.0698346 C7.95747307,15.0813946 7.95747307,15.7247831 8.22557245,17 C7.42214455,15.575761 7,13.9682303 7,12.3330077 L7,10.4137121 C7,7.97608621 8.97608621,6 11.4137121,6 L14.5590551,6 C15.8055296,6 16.9779371,6.31711831 18,6.87507731 Z" id="Combined-Shape" fill="#21262B"></path>
        </g>
    </g>
</svg>