<?xml version="1.0" encoding="utf-8"?>
<!-- Generator: Adobe Illustrator 22.0.1, SVG Export Plug-In . SVG Version: 6.00 Build 0)  -->
<svg version="1.1" id="Layer_1" xmlns="http://www.w3.org/2000/svg" xmlns:xlink="http://www.w3.org/1999/xlink" x="0px" y="0px"
	 viewBox="0 0 210 64" style="enable-background:new 0 0 210 64;" xml:space="preserve">
<style type="text/css">
	.st0{fill:#eee;}
</style>
<g>
	<path class="st0" d="M26.8,37.9c-0.8,0-1.4,0.7-1.4,1.5c0,0.8,0.6,1.5,1.4,1.5c0.8,0,1.4-0.7,1.4-1.5
		C28.3,38.6,27.6,37.9,26.8,37.9L26.8,37.9z M20.8,30.6c-0.8,0-1.4,0.7-1.4,1.5c0,0.8,0.6,1.5,1.4,1.5c0.8,0,1.4-0.7,1.4-1.5
		C22.2,31.2,21.5,30.6,20.8,30.6L20.8,30.6z M60.8,32c0-15.5-12.5-28-27.9-28C17.5,4,5,16.5,5,32c0,15.1,12,27.4,26.9,28V40.3h-1.8
		c-0.4,1.4-1.7,2.4-3.3,2.4c-1.9,0-3.4-1.5-3.4-3.4c0-1.9,1.5-3.4,3.4-3.4c1.5,0,2.9,1,3.3,2.4h1.8V33H24c-0.4,1.4-1.7,2.4-3.3,2.4
		c-1.9,0-3.4-1.5-3.4-3.4c0-1.9,1.5-3.4,3.4-3.4c1.5,0,2.8,1,3.3,2.4h7.9v-5.3h-1.8c-0.4,1.4-1.7,2.4-3.3,2.4
		c-1.9,0-3.4-1.5-3.4-3.4c0-1.9,1.5-3.4,3.4-3.4c1.5,0,2.9,1,3.3,2.4h1.8V17c-1.4-0.4-2.4-1.7-2.4-3.3c0-1.9,1.5-3.4,3.4-3.4
		c1.9,0,3.4,1.5,3.4,3.4c0,1.5-1,2.9-2.4,3.3V20h1.8c0.4-1.4,1.7-2.4,3.3-2.4c1.9,0,3.4,1.5,3.4,3.4c0,1.9-1.5,3.4-3.4,3.4
		c-1.5,0-2.8-1-3.3-2.4h-1.8v5.3h7.9c0.4-1.4,1.7-2.4,3.3-2.4c1.9,0,3.4,1.5,3.4,3.4c0,1.9-1.5,3.4-3.4,3.4c-1.5,0-2.9-1-3.3-2.4
		h-7.9v5.3h1.8c0.4-1.4,1.7-2.4,3.3-2.4c1.9,0,3.4,1.5,3.4,3.4c0,1.9-1.5,3.4-3.4,3.4c-1.5,0-2.9-1-3.3-2.4h-1.8V60
		C48.9,59.5,60.8,47.2,60.8,32L60.8,32z M34.4,13.7c0-0.8-0.6-1.5-1.4-1.5c-0.8,0-1.4,0.7-1.4,1.5c0,0.8,0.6,1.5,1.4,1.5
		C33.7,15.2,34.4,14.5,34.4,13.7L34.4,13.7z M39,37.1c0.8,0,1.4-0.7,1.4-1.5c0-0.8-0.6-1.5-1.4-1.5c-0.8,0-1.4,0.7-1.4,1.5
		C37.6,36.5,38.2,37.1,39,37.1L39,37.1z M26.8,23.2c-0.8,0-1.4,0.7-1.4,1.5c0,0.8,0.6,1.5,1.4,1.5c0.8,0,1.4-0.7,1.4-1.5
		C28.3,23.9,27.6,23.2,26.8,23.2L26.8,23.2z M45.1,29.8c0.8,0,1.4-0.7,1.4-1.5c0-0.8-0.6-1.5-1.4-1.5c-0.8,0-1.4,0.7-1.4,1.5
		C43.6,29.2,44.3,29.8,45.1,29.8L45.1,29.8z M39,22.5c0.8,0,1.4-0.7,1.4-1.5c0-0.8-0.6-1.5-1.4-1.5c-0.8,0-1.4,0.7-1.4,1.5
		C37.6,21.8,38.2,22.5,39,22.5L39,22.5z M194.2,27.9l-2.5,5.8h5L194.2,27.9L194.2,27.9z M200.2,42l-1.9-4.3H190l-1.9,4.3h-4.8
		l8.7-20.1h4.3L205,42H200.2L200.2,42z M176.4,21.9h4.5V42h-4.5V21.9L176.4,21.9z M167.9,31.9c0-1.8-0.6-3.3-1.7-4.6
		c-1.1-1.3-2.6-1.9-4.2-1.9c-1.7,0-3.1,0.6-4.2,1.9c-1.1,1.3-1.7,2.8-1.7,4.6c0,1.8,0.6,3.3,1.7,4.6c1.1,1.3,2.6,1.9,4.2,1.9
		c1.7,0,3.1-0.6,4.2-1.9C167.4,35.2,167.9,33.7,167.9,31.9L167.9,31.9z M169.5,39.3c-2,2-4.5,3-7.5,3c-3,0-5.5-1-7.5-3
		c-2-2-3-4.5-3-7.4c0-3,1-5.4,3-7.4c2-2,4.5-3,7.5-3c3,0,5.5,1,7.5,3c2,2,3,4.5,3,7.4C172.5,34.8,171.5,37.3,169.5,39.3L169.5,39.3z
		 M136.3,36.8c0.7,0.9,1.7,1.4,3,1.4c1.3,0,2.3-0.5,3-1.4c0.7-0.9,1.1-2.2,1.1-3.8V21.9h4.5v11.3c0,2.9-0.8,5.2-2.4,6.7
		c-1.6,1.6-3.7,2.3-6.2,2.3c-2.5,0-4.6-0.8-6.2-2.4c-1.6-1.6-2.4-3.8-2.4-6.7V21.9h4.5V33C135.2,34.6,135.6,35.9,136.3,36.8
		L136.3,36.8z M122.7,31.9c0-1.8-0.6-3.3-1.7-4.6c-1.1-1.3-2.6-1.9-4.2-1.9c-1.7,0-3.1,0.6-4.2,1.9c-1.1,1.3-1.7,2.8-1.7,4.6
		c0,1.8,0.6,3.3,1.7,4.6c1.1,1.3,2.6,1.9,4.2,1.9c1.7,0,3.1-0.6,4.2-1.9C122.1,35.2,122.7,33.7,122.7,31.9L122.7,31.9z M127.2,31.9
		c0,2.1-0.5,4-1.6,5.6c-1.1,1.7-2.5,2.9-4.3,3.7c0.2,0.3,0.4,0.5,0.8,0.7c0.4,0.2,0.8,0.3,1.2,0.3c0.4,0,0.8-0.1,1.2-0.2
		c0.4-0.1,0.7-0.3,0.9-0.4c0.5-0.4,0.8-0.8,1.1-1.2l2.3,2.8c-1.6,1.7-3.7,2.6-6.2,2.6c-1.1,0-2.3-0.3-3.4-0.9
		c-1.1-0.6-2-1.5-2.6-2.7c-3,0-5.5-1-7.5-3c-2-2-3-4.5-3-7.4c0-3,1-5.4,3-7.4c2-2,4.5-3,7.5-3c3,0,5.5,1,7.5,3
		C126.2,26.4,127.2,28.9,127.2,31.9L127.2,31.9z M103.2,21.9v4h-10v4.1h9v3.8h-9v4.2h10.3v4H88.8V21.9H103.2L103.2,21.9z M75,25.9
		c-0.4,0.4-0.6,0.8-0.6,1.4c0,0.6,0.3,1.1,0.8,1.4c0.5,0.3,1.7,0.8,3.6,1.2c1.9,0.5,3.4,1.2,4.4,2.1c1.1,0.9,1.6,2.3,1.6,4.1
		c0,1.8-0.7,3.3-2,4.4c-1.3,1.1-3.1,1.7-5.3,1.7c-3.2,0-6-1.2-8.6-3.5l2.7-3.3c2.2,1.9,4.2,2.8,6,2.8c0.8,0,1.5-0.2,1.9-0.5
		c0.5-0.4,0.7-0.8,0.7-1.4c0-0.6-0.2-1.1-0.7-1.4c-0.5-0.4-1.5-0.7-3-1.1c-2.3-0.6-4-1.3-5.1-2.2c-1.1-0.9-1.6-2.3-1.6-4.2
		c0-1.9,0.7-3.4,2-4.4c1.4-1,3.1-1.6,5.1-1.6c1.3,0,2.7,0.2,4,0.7c1.3,0.5,2.5,1.1,3.5,2l-2.3,3.3c-1.7-1.3-3.5-2-5.4-2
		C76.1,25.4,75.5,25.6,75,25.9L75,25.9z"/>
</g>
</svg>