<?xml version="1.0" encoding="UTF-8"?>
<svg width="123px" height="30px" viewBox="0 0 123 30" version="1.1" xmlns="http://www.w3.org/2000/svg" xmlns:xlink="http://www.w3.org/1999/xlink">
    <!-- Generator: Sketch 45.2 (43514) - http://www.bohemiancoding.com/sketch -->
    <title>zoojoobe-logo-vector</title>
    <desc>Created with Sketch.</desc>
    <defs>
        <polygon id="path-1" points="22.6298559 29.9723077 0.239501887 29.9723077 0.239501887 0.313846154 22.6298559 0.313846154"></polygon>
    </defs>
    <g id="Homepage" stroke="none" stroke-width="1" fill="none" fill-rule="evenodd">
        <g transform="translate(-50.000000, -15.000000)" id="Hero">
            <g>
                <g id="Header">
                    <g id="zoojoobe-logo-vector" transform="translate(50.000000, 15.000000)">
                        <polyline id="Fill-1" fill="#fff" points="10.4466453 10.0929231 10.4466453 8.45123077 0.11325283 8.45123077 0.11325283 10.3684615 7.52342264 10.3684615 0 20.3053846 0 22.0093846 10.8249283 22.0093846 10.8249283 20.1175385 2.84803019 20.1175385 10.4466453 10.0929231"></polyline>
                        <path d="M14.9154906,11.4710769 C15.621,10.5609231 16.5493019,10.1053846 17.7003962,10.1053846 C18.8765547,10.1053846 19.8197094,10.5669231 20.5293962,11.49 C21.2395472,12.4130769 21.5946226,13.6181538 21.5946226,15.1052308 C21.5946226,16.7676923 21.2455811,18.0604615 20.5484264,18.9835385 C19.8508075,19.9066154 18.9104377,20.3681538 17.7254604,20.3681538 C16.5493019,20.3681538 15.6103245,19.9126154 14.9089925,19.002 C14.2076604,18.0918462 13.8567623,16.8844615 13.8567623,15.3807692 C13.8567623,13.6850769 14.2099811,12.3816923 14.9154906,11.4710769 Z M11.5128,15.2681538 C11.5128,17.3732308 12.0864906,19.0647692 13.2329434,20.3427692 C14.3798604,21.6212308 15.8772113,22.26 17.7254604,22.26 C18.9522113,22.26 20.0378604,21.9678462 20.9833358,21.3830769 C21.9283472,20.7983077 22.6547434,19.9818462 23.1634528,18.9332308 C23.6716981,17.8850769 23.9255887,16.7007692 23.9255887,15.3807692 L23.9255887,15.2178462 C23.9255887,13.0961538 23.3523623,11.3958462 22.2054453,10.1178462 C21.0589925,8.83984615 19.557,8.20061538 17.7003962,8.20061538 C16.4991736,8.20061538 15.4297698,8.48861538 14.4931132,9.06507692 C13.5564566,9.64153846 12.8254189,10.4603077 12.3004642,11.5213846 C11.7755094,12.5824615 11.5128,13.7769231 11.5128,15.1052308 L11.5128,15.2681538 L11.5128,15.2681538 Z" id="Fill-2" fill="#fff"></path>
                        <path d="M28.5202189,11.4710769 C29.2261925,10.5609231 30.1540302,10.1053846 31.3051245,10.1053846 C32.481283,10.1053846 33.4244377,10.5669231 34.1345887,11.49 C34.8442755,12.4130769 35.1993509,13.6181538 35.1993509,15.1052308 C35.1993509,16.7676923 34.8507736,18.0604615 34.1531547,18.9835385 C33.456,19.9066154 32.515166,20.3681538 31.3306528,20.3681538 C30.1540302,20.3681538 29.215517,19.9126154 28.5141849,19.002 C27.8123887,18.0918462 27.4619547,16.8844615 27.4619547,15.3807692 C27.4619547,13.6850769 27.8147094,12.3816923 28.5202189,11.4710769 Z M25.1179925,15.2681538 C25.1179925,17.3732308 25.6912189,19.0647692 26.8381358,20.3427692 C27.9845887,21.6212308 29.4824038,22.26 31.3306528,22.26 C32.5569396,22.26 33.6430528,21.9678462 34.5880642,21.3830769 C35.5330755,20.7983077 36.2599358,19.9818462 36.7681811,18.9332308 C37.2764264,17.8850769 37.5307811,16.7007692 37.5307811,15.3807692 L37.5307811,15.2178462 C37.5307811,13.0961538 36.9570906,11.3958462 35.8101736,10.1178462 C34.6637208,8.83984615 33.1617283,8.20061538 31.3051245,8.20061538 C30.1039019,8.20061538 29.0349623,8.48861538 28.0983057,9.06507692 C27.1611849,9.64153846 26.4306113,10.4603077 25.9056566,11.5213846 C25.3802377,12.5824615 25.1179925,13.7769231 25.1179925,15.1052308 L25.1179925,15.2681538 L25.1179925,15.2681538 Z" id="Fill-3" fill="#fff"></path>
                        <path d="M39.5164189,5.79461538 C39.7433887,6.04523077 40.0836113,6.17076923 40.5375509,6.17076923 C40.9910264,6.17076923 41.3354264,6.04523077 41.5707509,5.79461538 C41.8056113,5.544 41.9235057,5.23061538 41.9235057,4.85492308 C41.9235057,4.47876923 41.8056113,4.16169231 41.5707509,3.90230769 C41.3354264,3.64384615 40.9910264,3.51415385 40.5375509,3.51415385 C40.091966,3.51415385 39.7540642,3.64569231 39.522917,3.90876923 C39.2917698,4.17184615 39.1761962,4.48753846 39.1761962,4.85492308 C39.1761962,5.23061538 39.2899132,5.544 39.5164189,5.79461538 Z M39.4156981,8.45123077 L39.4156981,23.6372308 C39.4156981,24.3309231 39.2792377,24.8178462 39.006317,25.098 C38.7333962,25.3781538 38.336083,25.518 37.8153057,25.518 C37.3785396,25.518 37.0257849,25.4847692 36.7570415,25.4178462 L36.7570415,27.2612308 C37.1938075,27.4107692 37.6681698,27.4855385 38.1810566,27.4855385 C40.5584377,27.4855385 41.7471283,26.1821538 41.7471283,23.5758462 L41.7471283,8.45123077 L39.4156981,8.45123077 L39.4156981,8.45123077 Z" id="Fill-4" fill="#fff"></path>
                        <path d="M47.173517,11.4710769 C47.8790264,10.5609231 48.8073283,10.1053846 49.9584226,10.1053846 C51.1345811,10.1053846 52.0777358,10.5669231 52.7874226,11.49 C53.4971094,12.4130769 53.8521849,13.6181538 53.8521849,15.1052308 C53.8521849,16.7676923 53.5036075,18.0604615 52.8064528,18.9835385 C52.108834,19.9066154 51.1684642,20.3681538 49.9834868,20.3681538 C48.8073283,20.3681538 47.8683509,19.9126154 47.1670189,19.002 C46.4656868,18.0918462 46.1147887,16.8844615 46.1147887,15.3807692 C46.1147887,13.6850769 46.4680075,12.3816923 47.173517,11.4710769 Z M43.7708264,15.2681538 C43.7708264,17.3732308 44.344517,19.0647692 45.4909698,20.3427692 C46.6378868,21.6212308 48.1352377,22.26 49.9834868,22.26 C51.2102377,22.26 52.2958868,21.9678462 53.2413623,21.3830769 C54.1863736,20.7983077 54.9127698,19.9818462 55.4214792,18.9332308 C55.9292604,17.8850769 56.1836151,16.7007692 56.1836151,15.3807692 L56.1836151,15.2178462 C56.1836151,13.0961538 55.6103887,11.3958462 54.4634717,10.1178462 C53.3165547,8.83984615 51.8150264,8.20061538 49.9584226,8.20061538 C48.7572,8.20061538 47.6877962,8.48861538 46.7511396,9.06507692 C45.814483,9.64153846 45.0834453,10.4603077 44.5584906,11.5213846 C44.0335358,12.5824615 43.7708264,13.7769231 43.7708264,15.1052308 L43.7708264,15.2681538 L43.7708264,15.2681538 Z" id="Fill-5" fill="#fff"></path>
                        <path d="M60.7782453,11.4710769 C61.4842189,10.5609231 62.4120566,10.1053846 63.5631509,10.1053846 C64.7393094,10.1053846 65.6824642,10.5669231 66.3921509,11.49 C67.1023019,12.4130769 67.4573774,13.6181538 67.4573774,15.1052308 C67.4573774,16.7676923 67.1083358,18.0604615 66.4111811,18.9835385 C65.7140264,19.9066154 64.7731925,20.3681538 63.5886792,20.3681538 C62.4120566,20.3681538 61.4735434,19.9126154 60.7722113,19.002 C60.0704151,18.0918462 59.7199811,16.8844615 59.7199811,15.3807692 C59.7199811,13.6850769 60.0727358,12.3816923 60.7782453,11.4710769 Z M57.3760189,15.2681538 C57.3760189,17.3732308 57.9492453,19.0647692 59.0961623,20.3427692 C60.2426151,21.6212308 61.7404302,22.26 63.5886792,22.26 C64.814966,22.26 65.9010792,21.9678462 66.8460906,21.3830769 C67.7911019,20.7983077 68.5179623,19.9818462 69.0262075,18.9332308 C69.5344528,17.8850769 69.7883434,16.7007692 69.7883434,15.3807692 L69.7883434,15.2178462 C69.7883434,13.0961538 69.215117,11.3958462 68.0686642,10.1178462 C66.9217472,8.83984615 65.4197547,8.20061538 63.5631509,8.20061538 C62.3619283,8.20061538 61.2929887,8.48861538 60.3563321,9.06507692 C59.4192113,9.64153846 58.6881736,10.4603077 58.163683,11.5213846 C57.6382642,12.5824615 57.3760189,13.7769231 57.3760189,15.1052308 L57.3760189,15.2681538 L57.3760189,15.2681538 Z" id="Fill-6" fill="#fff"></path>
                        <path d="M106.691592,19.002 C106.06963,19.8627692 105.200275,20.2929231 104.083064,20.2929231 C102.57086,20.2929231 101.457362,19.5830769 100.743498,18.1624615 L100.743498,12.2981538 C101.415589,10.878 102.520268,10.1681538 104.058,10.1681538 C105.20863,10.1681538 106.090981,10.5983077 106.704125,11.4586154 C107.317268,12.3189231 107.624072,13.5387692 107.624072,15.1176923 C107.624072,16.8466154 107.313091,18.1416923 106.691592,19.002 Z M109.955502,15.1804615 C109.955502,13.0167692 109.482996,11.3123077 108.537521,10.0675385 C107.592509,8.82323077 106.292423,8.20061538 104.637725,8.20061538 C102.982562,8.20061538 101.684332,8.78123077 100.743498,9.94246154 L100.743498,2.76230769 L98.4120679,2.76230769 L98.4120679,22.0093846 L100.554589,22.0093846 L100.667842,20.4433846 C101.608675,21.6544615 102.940325,22.26 104.662789,22.26 C106.275713,22.26 107.560947,21.6318462 108.518955,20.3741538 C109.476498,19.1169231 109.955502,17.4526154 109.955502,15.3807692 L109.955502,15.1804615 L109.955502,15.1804615 Z" id="Fill-7" fill="#fff"></path>
                        <path d="M119.464562,11.0764615 C120.035932,11.724 120.355268,12.6364615 120.42257,13.8143077 L120.42257,13.9896923 L113.592125,13.9896923 C113.743438,12.762 114.13843,11.8075385 114.777102,11.1263077 C115.415309,10.4455385 116.20483,10.1053846 117.146128,10.1053846 C118.120381,10.1053846 118.893192,10.4289231 119.464562,11.0764615 Z M122.577623,19.6412308 L121.153143,18.5386154 C120.724732,19.0896923 120.224842,19.5327692 119.653936,19.8669231 C119.082566,20.2010769 118.384947,20.3681538 117.562008,20.3681538 C116.402558,20.3681538 115.446872,19.9564615 114.694947,19.1335385 C113.943023,18.3110769 113.550351,17.2310769 113.516932,15.8944615 L122.754,15.8944615 L122.754,14.9298462 C122.754,12.7661538 122.262464,11.1036923 121.279392,9.94246154 C120.296321,8.78123077 118.918721,8.20061538 117.146128,8.20061538 C116.062336,8.20061538 115.056057,8.49923077 114.127755,9.09646154 C113.199453,9.69369231 112.477234,10.5207692 111.96017,11.5776923 C111.44357,12.6346154 111.185502,13.8355385 111.185502,15.1804615 L111.185502,15.6064615 C111.185502,17.628 111.765226,19.2424615 112.924211,20.4493846 C114.08366,21.6567692 115.587509,22.26 117.435758,22.26 C119.720774,22.26 121.434883,21.3872308 122.577623,19.6412308 L122.577623,19.6412308 Z" id="Fill-8" fill="#fff"></path>
                        <polyline id="Fill-9" points="74.101234 9.50676923 83.8423698 3.51415385 83.8423698 26.2495385 74.101234 21.0184615 74.101234 9.50676923"></polyline>
                        <g id="Group-13" transform="translate(72.407547, 0.000000)">
                            <mask id="mask-2" fill="white">
                                <use xlink:href="#path-1"></use>
                            </mask>
                            <g id="Clip-11"></g>
                            <polyline id="Fill-10" mask="url(#mask-2)" points="20.5693132 9.50676923 11.4348226 3.51415385 11.4348226 26.2495385 20.5693132 21.0184615 20.5693132 9.50676923"></polyline>
                            <path d="M20.3599811,11.6889231 C20.3599811,9.492 18.2583057,8.57907692 18.2583057,8.57907692 L13.1020528,5.60907692 C13.1020528,5.60907692 12.4225358,5.16092308 11.420434,5.16092308 C10.4187962,5.16092308 9.62741887,5.66538462 9.62741887,5.66538462 C9.62741887,5.66538462 5.6334,7.962 4.16296981,8.83107692 C2.69253962,9.70061538 2.50966415,11.1447692 2.50966415,11.6607692 L2.50966415,13.8526154 C4.48787547,12.6876923 9.16698113,9.99646154 9.16698113,9.99646154 C9.16698113,9.99646154 10.1602642,9.36369231 11.4167208,9.36369231 C12.6731774,9.36369231 13.5253585,9.92584615 13.5253585,9.92584615 L19.9923736,13.6518462 C19.9923736,13.6518462 20.138117,13.716 20.3599811,13.8475385 L20.3599811,11.6889231 Z M3.18546792,20.2089231 C5.38693585,18.9230769 9.16698113,16.7483077 9.16698113,16.7483077 C9.16698113,16.7483077 10.1602642,16.1155385 11.4167208,16.1155385 C12.6731774,16.1155385 13.5253585,16.6781538 13.5253585,16.6781538 L19.673966,20.2209231 C20.2281623,19.5041538 20.3372377,18.6563077 20.3567321,18.2773846 C20.288966,16.1589231 18.2583057,15.2750769 18.2583057,15.2750769 L13.1020528,12.3055385 C13.1020528,12.3055385 12.4225358,11.8569231 11.420434,11.8569231 C10.4187962,11.8569231 9.62741887,12.3613846 9.62741887,12.3613846 C9.62741887,12.3613846 5.6334,14.658 4.16296981,15.5275385 C3.1497283,16.1266154 2.74777358,16.9716923 2.59599623,17.6086154 C2.54122642,17.8366154 2.51941132,18.0355385 2.51291321,18.1892308 C2.54169057,19.1007692 2.84988679,19.758 3.18546792,20.2089231 Z M9.40323396,24.1006154 C10.0094151,24.4587692 10.411834,24.7449231 11.420434,24.7449231 C12.4573472,24.7449231 13.8307698,23.8763077 13.8307698,23.8763077 C13.8307698,23.8763077 15.9524038,22.6463077 17.6252038,21.6627692 C16.2485321,20.8698462 13.1020528,19.0573846 13.1020528,19.0573846 C13.1020528,19.0573846 12.4225358,18.6092308 11.420434,18.6092308 C10.4187962,18.6092308 9.62741887,19.1136923 9.62741887,19.1136923 C9.62741887,19.1136923 6.98268679,20.6344615 5.20498868,21.6692308 C6.64060755,22.4986154 8.98735472,23.8550769 9.40323396,24.1006154 Z M20.8009245,22.4229231 C18.8644868,23.5827692 14.4392717,26.1489231 14.4392717,26.1489231 C14.4392717,26.1489231 13.9649094,26.4489231 13.3262377,26.7341538 C13.1753887,26.8061538 11.4348226,27.9313846 11.4348226,30 C11.4348226,27.9355385 10.0354075,27.0816923 9.40323396,26.7341538 L9.40323396,26.7341538 C9.23613962,26.64 9.06858113,26.538 8.88616981,26.43 C8.12542642,25.9809231 2.20796604,22.5632308 2.20796604,22.5632308 C2.20796604,22.5632308 0.239501887,21.5635385 0.239501887,18.8372308 L0.239501887,10.8226154 C0.239501887,10.1750769 0.469256604,8.36307692 2.3133283,7.27246154 C3.69742642,6.45369231 6.86386415,4.62692308 8.35796604,3.76615385 C7.99082264,3.35030769 7.24771698,2.75815385 5.98429811,2.75815385 C5.98383396,2.75769231 5.98336981,2.75676923 5.98336981,2.75630769 C5.33030943,2.73323077 4.80721132,2.19646154 4.80721132,1.536 C4.80721132,0.861230769 5.35305283,0.313846154 6.02653585,0.313846154 C6.20198491,0.313846154 6.36815094,0.351692308 6.519,0.419076923 L6.5208566,0.419076923 C6.53617358,0.424153846 6.56587925,0.438923077 6.60486792,0.460153846 C6.60672453,0.461076923 6.60858113,0.462461538 6.61043774,0.463384615 C7.04349057,0.702 8.73253585,1.85123077 9.10478491,3.336 C9.14516604,3.31292308 9.16698113,3.3 9.16698113,3.3 C9.16698113,3.3 10.1602642,2.66723077 11.4167208,2.66723077 C12.6731774,2.66723077 13.5253585,3.22984615 13.5253585,3.22984615 L13.7811057,3.37707692 C14.1705283,1.728 16.2517811,0.483230769 16.2517811,0.483230769 L16.2517811,0.484153846 C16.5260943,0.322153846 16.8672453,0.261692308 17.2269623,0.365076923 C17.6242755,0.479538462 17.9445396,0.808615385 18.0480453,1.20738462 C18.2550566,2.00676923 17.6711547,2.724 16.9122679,2.74938462 L16.9131962,2.75169231 C15.6103245,2.75169231 14.8602566,3.37984615 14.5056453,3.79476923 L19.9923736,6.95584615 C19.9923736,6.95584615 22.6287509,8.10138462 22.6287509,10.8576923 L22.6287509,17.5536923 L22.6287509,18.336 L22.6287509,18.8723077 C22.6287509,18.8723077 22.7373623,21.2626154 20.8009245,22.4229231 L20.8009245,22.4229231 Z" id="Fill-12" fill="#fff" mask="url(#mask-2)"></path>
                        </g>
                    </g>
                </g>
            </g>
        </g>
    </g>
</svg>
